<svg id="Capa_1" data-name="Capa 1" xmlns="http://www.w3.org/2000/svg" xmlns:xlink="http://www.w3.org/1999/xlink" viewBox="0 0 328.58 368.62"><defs><style>.cls-1{fill:url(#Degradado_sin_nombre_71);}.cls-2{fill:url(#Degradado_sin_nombre_79);}.cls-3{fill:url(#Degradado_sin_nombre_33);}.cls-4{fill:url(#Degradado_sin_nombre_71-2);}.cls-5{fill:url(#Degradado_sin_nombre_79-2);}.cls-6{fill:url(#Degradado_sin_nombre_33-2);}.cls-7{fill:url(#Degradado_sin_nombre_71-3);}.cls-8{fill:url(#Degradado_sin_nombre_79-3);}.cls-9{fill:url(#Degradado_sin_nombre_33-3);}.cls-10{fill:url(#Degradado_sin_nombre_71-4);}.cls-11{fill:url(#Degradado_sin_nombre_79-4);}.cls-12{fill:url(#Degradado_sin_nombre_33-4);}.cls-13{fill:url(#Degradado_sin_nombre_71-5);}.cls-14{fill:url(#Degradado_sin_nombre_79-5);}.cls-15{fill:url(#Degradado_sin_nombre_33-5);}.cls-16{fill:url(#Degradado_sin_nombre_71-6);}.cls-17{fill:url(#Degradado_sin_nombre_79-6);}.cls-18{fill:url(#Degradado_sin_nombre_33-6);}</style><linearGradient id="Degradado_sin_nombre_71" x1="176.07" y1="74.65" x2="221.71" y2="95.93" gradientUnits="userSpaceOnUse"><stop offset="0" stop-color="#e16e2d"/><stop offset="0.72" stop-color="#e85e31"/><stop offset="0.87" stop-color="#e95f32"/><stop offset="1" stop-color="#f18f34"/></linearGradient><linearGradient id="Degradado_sin_nombre_79" x1="125.37" y1="96.47" x2="191.24" y2="96.47" gradientUnits="userSpaceOnUse"><stop offset="0" stop-color="#f2b707"/><stop offset="0.01" stop-color="#f2b707"/><stop offset="0.44" stop-color="#f2b707"/><stop offset="0.68" stop-color="#f18f34"/><stop offset="1" stop-color="#e95f32"/></linearGradient><radialGradient id="Degradado_sin_nombre_33" cx="170.17" cy="13.1" r="13.1" gradientUnits="userSpaceOnUse"><stop offset="0" stop-color="#ffef26"/><stop offset="0" stop-color="#ffea21"/><stop offset="0" stop-color="#fed70f"/><stop offset="0" stop-color="#fdcc04"/><stop offset="0" stop-color="#fdc800"/><stop offset="0" stop-color="#f29531"/><stop offset="0.5" stop-color="#f18f34"/><stop offset="0.99" stop-color="#f2b707"/></radialGradient><linearGradient id="Degradado_sin_nombre_71-2" x1="204.71" y1="31.16" x2="250.35" y2="52.44" gradientTransform="translate(218.28 -68.18) rotate(62.98)" xlink:href="#Degradado_sin_nombre_71"/><linearGradient id="Degradado_sin_nombre_79-2" x1="154" y1="52.98" x2="219.88" y2="52.98" gradientTransform="translate(218.28 -68.18) rotate(62.98)" xlink:href="#Degradado_sin_nombre_79"/><radialGradient id="Degradado_sin_nombre_33-2" cx="214.37" cy="-16.94" r="13.1" gradientTransform="translate(202.71 -81.64) rotate(62.98)" xlink:href="#Degradado_sin_nombre_33"/><linearGradient id="Degradado_sin_nombre_71-3" x1="220.34" y1="-6.97" x2="265.99" y2="14.32" gradientTransform="matrix(-0.57, 0.82, -0.82, -0.57, 412.78, 69.29)" xlink:href="#Degradado_sin_nombre_71"/><linearGradient id="Degradado_sin_nombre_79-3" x1="169.64" y1="14.85" x2="235.51" y2="14.85" gradientTransform="matrix(-0.57, 0.82, -0.82, -0.57, 412.78, 69.29)" xlink:href="#Degradado_sin_nombre_79"/><radialGradient id="Degradado_sin_nombre_33-3" cx="230.01" cy="-55.06" r="13.1" gradientTransform="matrix(-0.57, 0.82, -0.82, -0.57, 397.22, 55.83)" xlink:href="#Degradado_sin_nombre_33"/><linearGradient id="Degradado_sin_nombre_71-4" x1="181.69" y1="6.07" x2="227.33" y2="27.36" gradientTransform="translate(371.1 336.39) rotate(-177.19)" xlink:href="#Degradado_sin_nombre_71"/><linearGradient id="Degradado_sin_nombre_79-4" x1="130.99" y1="27.89" x2="196.86" y2="27.89" gradientTransform="translate(371.1 336.39) rotate(-177.19)" xlink:href="#Degradado_sin_nombre_79"/><radialGradient id="Degradado_sin_nombre_33-4" cx="191.36" cy="-42.02" r="13.1" gradientTransform="translate(355.53 322.93) rotate(-177.19)" xlink:href="#Degradado_sin_nombre_33"/><linearGradient id="Degradado_sin_nombre_71-5" x1="203.07" y1="87.22" x2="248.71" y2="108.5" gradientTransform="matrix(-0.47, -0.88, 0.88, -0.47, 96.22, 486.13)" xlink:href="#Degradado_sin_nombre_71"/><linearGradient id="Degradado_sin_nombre_79-5" x1="152.36" y1="109.04" x2="218.24" y2="109.04" gradientTransform="matrix(-0.47, -0.88, 0.88, -0.47, 96.22, 486.13)" xlink:href="#Degradado_sin_nombre_79"/><radialGradient id="Degradado_sin_nombre_33-5" cx="212.73" cy="39.12" r="13.1" gradientTransform="matrix(-0.47, -0.88, 0.88, -0.47, 80.66, 472.67)" xlink:href="#Degradado_sin_nombre_33"/><linearGradient id="Degradado_sin_nombre_71-6" x1="258.77" y1="166.73" x2="304.41" y2="188.01" gradientTransform="matrix(0.54, -0.84, 0.84, 0.54, -213.73, 273.04)" xlink:href="#Degradado_sin_nombre_71"/><linearGradient id="Degradado_sin_nombre_79-6" x1="208.07" y1="188.54" x2="273.94" y2="188.54" gradientTransform="matrix(0.54, -0.84, 0.84, 0.54, -213.73, 273.04)" xlink:href="#Degradado_sin_nombre_79"/><radialGradient id="Degradado_sin_nombre_33-6" cx="268.43" cy="118.63" r="13.1" gradientTransform="matrix(0.54, -0.84, 0.84, 0.54, -229.29, 259.58)" xlink:href="#Degradado_sin_nombre_33"/></defs><path class="cls-1" d="M245.9,44.06,191.51,145.19a1.47,1.47,0,0,1-2.76-.63L185,56a1.48,1.48,0,0,1,1.16-1.5l58.16-12.53A1.48,1.48,0,0,1,245.9,44.06Z" transform="translate(-15.57 -13.46)"/><path class="cls-2" d="M125.61,49.25l62.93,96.05a1.47,1.47,0,0,0,2.7-.87l-3.9-88.6a1.47,1.47,0,0,0-1.29-1.4L127,47A1.48,1.48,0,0,0,125.61,49.25Z" transform="translate(-15.57 -13.46)"/><circle class="cls-3" cx="170.17" cy="13.1" r="13.1"/><path class="cls-4" d="M342.51,176.64l-114.8-2.5a1.47,1.47,0,0,1-.69-2.75l77.21-43.62a1.46,1.46,0,0,1,1.87.35l37.58,46.12A1.47,1.47,0,0,1,342.51,176.64Z" transform="translate(-15.57 -13.46)"/><path class="cls-5" d="M283.24,71.84l-57,99.7a1.47,1.47,0,0,0,2,2l77.15-43.73a1.47,1.47,0,0,0,.66-1.78l-20.18-56A1.47,1.47,0,0,0,283.24,71.84Z" transform="translate(-15.57 -13.46)"/><circle class="cls-6" cx="315.2" cy="101.63" r="13.1"/><path class="cls-7" d="M278.52,329.26,226.31,227a1.48,1.48,0,0,1,2.1-1.92l75,47.33a1.46,1.46,0,0,1,.58,1.8l-22.8,55A1.47,1.47,0,0,1,278.52,329.26Z" transform="translate(-15.57 -13.46)"/><path class="cls-8" d="M342.71,227.4l-114.79-2.92a1.47,1.47,0,0,0-.82,2.71l75.07,47.22a1.46,1.46,0,0,0,1.88-.26l39.72-44.29A1.48,1.48,0,0,0,342.71,227.4Z" transform="translate(-15.57 -13.46)"/><circle class="cls-9" cx="311.59" cy="276.29" r="13.1"/><path class="cls-10" d="M118.68,348.56,178,250.21a1.47,1.47,0,0,1,2.73.77l-.56,88.68a1.47,1.47,0,0,1-1.24,1.44l-58.7,9.67A1.47,1.47,0,0,1,118.68,348.56Z" transform="translate(-15.57 -13.46)"/><path class="cls-11" d="M239.07,349.26l-58.14-99a1.47,1.47,0,0,0-2.74.73l-.45,88.69a1.48,1.48,0,0,0,1.22,1.46l58.59,10.33A1.47,1.47,0,0,0,239.07,349.26Z" transform="translate(-15.57 -13.46)"/><circle class="cls-12" cx="162.35" cy="355.53" r="13.1"/><path class="cls-13" d="M17,218.91l114.83.08a1.47,1.47,0,0,1,.75,2.74L56.34,267a1.47,1.47,0,0,1-1.87-.32L15.92,221.33A1.47,1.47,0,0,1,17,218.91Z" transform="translate(-15.57 -13.46)"/><path class="cls-14" d="M78.51,322.44l54.86-100.88a1.47,1.47,0,0,0-2-2L55.11,264.94a1.46,1.46,0,0,0-.62,1.79l21.35,55.53A1.48,1.48,0,0,0,78.51,322.44Z" transform="translate(-15.57 -13.46)"/><circle class="cls-15" cx="14.51" cy="266.74" r="13.1"/><path class="cls-16" d="M78.91,70.88l55.45,100.55a1.47,1.47,0,0,1-2,2l-76.47-44.9a1.48,1.48,0,0,1-.64-1.79l21-55.65A1.47,1.47,0,0,1,78.91,70.88Z" transform="translate(-15.57 -13.46)"/><path class="cls-17" d="M18,174.73,132.83,174a1.47,1.47,0,0,0,.74-2.74L57,126.45a1.48,1.48,0,0,0-1.87.32L16.87,172.31A1.47,1.47,0,0,0,18,174.73Z" transform="translate(-15.57 -13.46)"/><circle class="cls-18" cx="16" cy="98.46" r="13.1"/></svg>